# xmcd
#
# Track frame offsets: 
#        150
#        17985
#        35450
#        53222
#        73475
#        95652
#        107090
#        126212
#        146652
#        164315
#        181742
#        199717
#        212417
#        227535
#        243395
#        260255
#        286670
#        307070
#
# Disc length: 4439 seconds
#
# Revision: 6
# Processed by: cddbd v1.5.2PL0 Copyright (c) Steve Scherf et al.
# Submitted via: ExactAudioCopyFreeDBPlugin 1.0
#
DISCID=04115512
DTITLE=Gunnar Graps - Parimad palad [CD3)
DYEAR=1900
DGENRE=
TTITLE0=Raudmees
TTITLE1=Laanekaja
TTITLE2=Kivine Koobas
TTITLE3=Tormilind
TTITLE4=Valgus
TTITLE5=Varsti
TTITLE6=Mosaiik
TTITLE7=Unede tee
TTITLE8=Iga päev
TTITLE9=Kaob kõik
TTITLE10=Unenäost laotud teel
TTITLE11=Selles meeletus ilmas
TTITLE12=Sügise süü
TTITLE13=Mis jääb meist maha
TTITLE14=Põlemine
TTITLE15=Vana kodukoht
TTITLE16=Trepist üles
TTITLE17=Gethsemane
EXTD=
EXTT0=
EXTT1=
EXTT2=
EXTT3=
EXTT4=
EXTT5=
EXTT6=
EXTT7=
EXTT8=
EXTT9=
EXTT10=
EXTT11=
EXTT12=
EXTT13=
EXTT14=
EXTT15=
EXTT16=
EXTT17=
PLAYORDER=
